<svg id="SvgjsSvg1045" xmlns="http://www.w3.org/2000/svg" version="1.1" xmlns:xlink="http://www.w3.org/1999/xlink" xmlns:svgjs="http://svgjs.com/svgjs" width="267" height="224"><defs id="SvgjsDefs1046"><clipPath id="SvgjsClipPath1049"><path id="SvgjsPath1048" d="M1122 655C1122 593.14411 1171.92025 543 1233.5 543C1295.07975 543 1345 593.14411 1345 655C1345 716.85589 1295.07975 767 1233.5 767C1171.92025 767 1122 716.85589 1122 655Z " fill="#ffffff"></path></clipPath></defs><path id="SvgjsPath1047" d="M1122 655C1122 593.14411 1171.92025 543 1233.5 543C1295.07975 543 1345 593.14411 1345 655C1345 716.85589 1295.07975 767 1233.5 767C1171.92025 767 1122 716.85589 1122 655Z " fill-opacity="0" fill="#ffffff" stroke-dasharray="0" stroke-linejoin="miter" stroke-linecap="butt" stroke-opacity="1" stroke="#221f20" stroke-miterlimit="50" stroke-width="2" clip-path="url(&quot;#SvgjsClipPath1049&quot;)" transform="matrix(1,0,0,1,-1122,-543)"></path><path id="SvgjsPath1050" d="M1384.69133 611.6716L1388.3298900000002 631.28152L1369.6765400000002 623.62271Z " fill="#fec017" fill-opacity="1" transform="matrix(1,0,0,1,-1122,-543)"></path></svg>