<svg id="SvgjsSvg1035" xmlns="http://www.w3.org/2000/svg" version="1.1" xmlns:xlink="http://www.w3.org/1999/xlink" xmlns:svgjs="http://svgjs.com/svgjs" width="55" height="64"><defs id="SvgjsDefs1036"></defs><path id="SvgjsPath1037" d="M1185.28 70.8C1184.57 70.8 1184 70.22 1184 69.52C1184 54.339999999999996 1196.32 42 1211.45 42C1212.16 42 1212.73 42.58 1212.73 43.28C1212.73 43.99 1212.16 44.56 1211.45 44.56C1197.73 44.56 1186.56 55.760000000000005 1186.56 69.51C1186.56 70.22 1185.99 70.80000000000001 1185.28 70.80000000000001Z " fill="#fec017" fill-opacity="1" transform="matrix(1,0,0,1,-1184,-37)"></path><path id="SvgjsPath1038" d="M1211.28 96.8C1210.57 96.8 1210 96.22 1210 95.50999999999999C1210 94.80999999999999 1210.57 94.22999999999999 1211.28 94.22999999999999C1225.01 94.22999999999999 1236.17 83.03999999999999 1236.17 69.27999999999999C1236.17 68.57999999999998 1236.75 67.99999999999999 1237.45 67.99999999999999C1238.16 67.99999999999999 1238.73 68.57999999999998 1238.73 69.27999999999999C1238.73 84.44999999999999 1226.42 96.79999999999998 1211.28 96.79999999999998Z " fill="#fec017" fill-opacity="1" transform="matrix(1,0,0,1,-1184,-37)"></path><path id="SvgjsPath1039" d="M1208.92 48.93C1208.43 48.93 1207.94 48.74 1207.5600000000002 48.36C1206.8100000000002 47.62 1206.8100000000002 46.4 1207.5600000000002 45.65L1209.7400000000002 43.46L1207.5600000000002 41.28C1206.8100000000002 40.53 1206.8100000000002 39.31 1207.5600000000002 38.56C1208.3100000000002 37.81 1209.5200000000002 37.81 1210.2700000000002 38.56L1215.1600000000003 43.46L1210.2700000000002 48.36C1209.9000000000003 48.74 1209.4100000000003 48.93 1208.9200000000003 48.93Z " fill="#fec017" fill-opacity="1" transform="matrix(1,0,0,1,-1184,-37)"></path><path id="SvgjsPath1040" d="M1214.24 90C1214.73 90 1215.22 90.19 1215.6 90.56C1216.35 91.31 1216.35 92.53 1215.6 93.28L1213.4199999999998 95.46000000000001L1215.6 97.65C1216.35 98.4 1216.35 99.61 1215.6 100.36C1214.85 101.11 1213.6399999999999 101.11 1212.8899999999999 100.36L1207.9999999999998 95.46L1212.8899999999999 90.55999999999999C1213.2599999999998 90.18999999999998 1213.7499999999998 89.99999999999999 1214.2399999999998 89.99999999999999Z " fill="#fec017" fill-opacity="1" transform="matrix(1,0,0,1,-1184,-37)"></path><path id="SvgjsPath1041" d="M1210.12 75.45L1205.1 75.45C1208.24 72.42 1210.61 69.8 1210.61 66.52000000000001C1210.61 63.77000000000001 1208.81 61.000000000000014 1204.81 61.000000000000014C1202.9199999999998 61.000000000000014 1201.11 61.65000000000001 1199.71 62.83000000000001C1199.41 63.08000000000001 1199.31 63.500000000000014 1199.47 63.860000000000014L1200.16 65.38000000000001C1200.28 65.63000000000001 1200.5 65.82000000000001 1200.77 65.88000000000001C1201.04 65.94000000000001 1201.32 65.87 1201.53 65.7C1202.05 65.27 1203.1 64.55 1204.37 64.55C1205.9199999999998 64.55 1206.6699999999998 65.28 1206.6699999999998 66.78C1206.6499999999999 68.81 1204.9799999999998 70.72 1200.9699999999998 74.52L1199.2699999999998 76.17C1199.0999999999997 76.33 1198.9999999999998 76.56 1198.9999999999998 76.8L1198.9999999999998 78.11999999999999C1198.9999999999998 78.60999999999999 1199.3899999999999 78.99999999999999 1199.8799999999999 78.99999999999999L1210.12 78.99999999999999C1210.61 78.99999999999999 1211 78.60999999999999 1211 78.11999999999999L1211 76.32999999999998C1211 75.83999999999999 1210.6 75.44999999999999 1210.12 75.44999999999999Z " fill="#2b819e" fill-opacity="1" transform="matrix(1,0,0,1,-1184,-37)"></path><path id="SvgjsPath1042" d="M1210.12 75.45L1205.1 75.45C1208.24 72.42 1210.61 69.8 1210.61 66.52000000000001C1210.61 63.77000000000001 1208.81 61.000000000000014 1204.81 61.000000000000014C1202.9199999999998 61.000000000000014 1201.11 61.65000000000001 1199.71 62.83000000000001C1199.41 63.08000000000001 1199.31 63.500000000000014 1199.47 63.860000000000014L1200.16 65.38000000000001C1200.28 65.63000000000001 1200.5 65.82000000000001 1200.77 65.88000000000001C1201.04 65.94000000000001 1201.32 65.87 1201.53 65.7C1202.05 65.27 1203.1 64.55 1204.37 64.55C1205.9199999999998 64.55 1206.6699999999998 65.28 1206.6699999999998 66.78C1206.6499999999999 68.81 1204.9799999999998 70.72 1200.9699999999998 74.52L1199.2699999999998 76.17C1199.0999999999997 76.33 1198.9999999999998 76.56 1198.9999999999998 76.8L1198.9999999999998 78.11999999999999C1198.9999999999998 78.60999999999999 1199.3899999999999 78.99999999999999 1199.8799999999999 78.99999999999999L1210.12 78.99999999999999C1210.61 78.99999999999999 1211 78.60999999999999 1211 78.11999999999999L1211 76.32999999999998C1211 75.83999999999999 1210.6 75.44999999999999 1210.12 75.44999999999999Z " fill="#f94242" fill-opacity="1" transform="matrix(1,0,0,1,-1184,-37)"></path><path id="SvgjsPath1043" d="M1221.84 71.08L1221.84 61.89C1221.84 61.4 1221.4599999999998 61 1220.99 61L1218.73 61C1218.46 61 1218.2 61.14 1218.04 61.38L1211.1499999999999 71.74000000000001C1211.05 71.88000000000001 1210.9999999999998 72.06 1210.9999999999998 72.25000000000001L1210.9999999999998 73.69000000000001C1210.9999999999998 74.19000000000001 1211.3799999999999 74.58000000000001 1211.8499999999997 74.58000000000001L1218.1699999999996 74.58000000000001L1218.1699999999996 78.11000000000001C1218.1699999999996 78.60000000000001 1218.5499999999997 79.00000000000001 1219.0199999999995 79.00000000000001L1220.9899999999996 79.00000000000001C1221.4599999999996 79.00000000000001 1221.8399999999995 78.60000000000001 1221.8399999999995 78.11000000000001L1221.8399999999995 74.58000000000001L1223.1499999999994 74.58000000000001C1223.6199999999994 74.58000000000001 1223.9999999999993 74.19000000000001 1223.9999999999993 73.69000000000001L1223.9999999999993 71.97000000000001C1223.9999999999993 71.48000000000002 1223.6199999999992 71.08000000000001 1223.1499999999994 71.08000000000001ZM1218.17 67.29L1218.17 71.08000000000001L1215.5800000000002 71.08000000000001Z " fill="#4ca1bd" fill-opacity="1" transform="matrix(1,0,0,1,-1184,-37)"></path><path id="SvgjsPath1044" d="M1221.84 71.08L1221.84 61.89C1221.84 61.4 1221.4599999999998 61 1220.99 61L1218.73 61C1218.46 61 1218.2 61.14 1218.04 61.38L1211.1499999999999 71.74000000000001C1211.05 71.88000000000001 1210.9999999999998 72.06 1210.9999999999998 72.25000000000001L1210.9999999999998 73.69000000000001C1210.9999999999998 74.19000000000001 1211.3799999999999 74.58000000000001 1211.8499999999997 74.58000000000001L1218.1699999999996 74.58000000000001L1218.1699999999996 78.11000000000001C1218.1699999999996 78.60000000000001 1218.5499999999997 79.00000000000001 1219.0199999999995 79.00000000000001L1220.9899999999996 79.00000000000001C1221.4599999999996 79.00000000000001 1221.8399999999995 78.60000000000001 1221.8399999999995 78.11000000000001L1221.8399999999995 74.58000000000001L1223.1499999999994 74.58000000000001C1223.6199999999994 74.58000000000001 1223.9999999999993 74.19000000000001 1223.9999999999993 73.69000000000001L1223.9999999999993 71.97000000000001C1223.9999999999993 71.48000000000002 1223.6199999999992 71.08000000000001 1223.1499999999994 71.08000000000001ZM1218.17 67.29L1218.17 71.08000000000001L1215.5800000000002 71.08000000000001Z " fill="#f94242" fill-opacity="1" transform="matrix(1,0,0,1,-1184,-37)"></path></svg>