<svg id="SvgjsSvg1055" xmlns="http://www.w3.org/2000/svg" version="1.1" xmlns:xlink="http://www.w3.org/1999/xlink" xmlns:svgjs="http://svgjs.com/svgjs" width="18" height="48"><defs id="SvgjsDefs1056"></defs><path id="SvgjsPath1057" d="M750.08 2700.16C751.88 2700.06 753.37 2698.7 753.6600000000001 2696.85L755.5400000000001 2684.92C755.72 2683.77 755.4000000000001 2682.61 754.6700000000001 2681.73C754.08 2681.02 753.2800000000001 2680.55 752.4000000000001 2680.4L752.4000000000001 2672.51C752.4000000000001 2672.23 752.1800000000001 2672 751.9000000000001 2672C751.6300000000001 2672 751.4100000000001 2672.23 751.4100000000001 2672.51L751.4100000000001 2680.34L743.1800000000001 2680.34L743.1800000000001 2672.51C743.1800000000001 2672.23 742.96 2672 742.6800000000001 2672C742.4100000000001 2672 742.19 2672.23 742.19 2672.51L742.19 2680.4C741.3100000000001 2680.55 740.5100000000001 2681.02 739.9200000000001 2681.73C739.19 2682.61 738.8700000000001 2683.77 739.0500000000001 2684.92L740.9300000000001 2696.85C741.23 2698.77 742.82 2700.17 744.72 2700.17L744.8100000000001 2700.17C744.94 2700.98 745.19 2702.4700000000003 745.2500000000001 2702.75C745.7400000000001 2705.25 747.1100000000001 2706.82 748.2200000000001 2708.08C749.1200000000001 2709.11 749.8300000000002 2709.92 749.8000000000002 2710.88C749.7400000000002 2712.83 748.2500000000002 2713.6 747.2600000000002 2713.63C745.4300000000002 2713.7000000000003 744.0700000000002 2712.13 743.9500000000003 2709.81C743.7800000000003 2706.7799999999997 741.2300000000002 2705.75 741.2000000000003 2705.74C740.9500000000003 2705.64 740.6700000000003 2705.77 740.5700000000003 2706.0299999999997C740.5200000000003 2706.16 740.5300000000003 2706.2999999999997 740.5800000000003 2706.4199999999996C740.5800000000003 2706.4199999999996 740.6500000000003 2706.6199999999994 740.6900000000003 2706.7299999999996C741.0700000000003 2708.0999999999995 741.0300000000003 2710.7799999999997 740.9800000000002 2711.7699999999995C740.9700000000003 2711.7799999999997 740.9800000000002 2712.0499999999997 740.9800000000002 2712.1799999999994C741.1800000000003 2716.4899999999993 744.6500000000002 2719.9399999999996 748.9000000000002 2719.9399999999996C753.2600000000002 2719.9399999999996 756.8200000000002 2716.2899999999995 756.8200000000002 2711.7999999999997C756.8200000000002 2709.2999999999997 755.5700000000002 2707.0299999999997 753.0000000000001 2704.8399999999997C751.1700000000001 2703.2799999999997 750.3900000000001 2701.2599999999998 750.0800000000002 2700.16ZM741.72 2695.56L747.38 2689.75C749.15 2689.7 750.58 2688.23 750.63 2686.41L754.18 2682.7599999999998C754.53 2683.35 754.67 2684.06 754.56 2684.7599999999998L754.27 2686.6299999999997L742.81 2698.3999999999996C742.3399999999999 2697.97 742.01 2697.3699999999994 741.9 2696.6899999999996ZM754 2688.34L753.26 2693.07L747.33 2699.15L744.72 2699.15C744.35 2699.15 744 2699.08 743.6700000000001 2698.9500000000003ZM747.4 2682.9C747.37 2682.9 747.3299999999999 2682.89 747.29 2682.89C745.4499999999999 2682.89 743.9599999999999 2684.43 743.9599999999999 2686.3199999999997C743.9599999999999 2686.3599999999997 743.9599999999999 2686.3999999999996 743.9599999999999 2686.43L740.8 2689.68L740.26 2686.27L745.05 2681.35L748.9 2681.35ZM744.2 2687.61C744.5600000000001 2688.51 745.2800000000001 2689.2200000000003 746.1800000000001 2689.55L741.5300000000001 2694.3300000000004L740.9900000000001 2690.9100000000003ZM744.94 2686.32C744.94 2684.9900000000002 746 2683.9100000000003 747.2900000000001 2683.9100000000003C748.59 2683.9100000000003 749.6400000000001 2684.9900000000002 749.6400000000001 2686.32C749.6400000000001 2687.65 748.5900000000001 2688.7400000000002 747.2900000000001 2688.7400000000002C746.0000000000001 2688.7400000000002 744.94 2687.65 744.94 2686.32ZM748.55 2683.15L750.3 2681.35L751.74 2681.35C752.4 2681.35 753.03 2681.58 753.53 2682L750.4399999999999 2685.17C750.1199999999999 2684.25 749.43 2683.52 748.55 2683.15ZM748.73 2699.15L752.99 2694.78L752.69 2696.69C752.46 2698.12 751.2800000000001 2699.15 749.87 2699.15ZM742.84 2681.35L743.65 2681.35L740.0699999999999 2685.0299999999997L740.02 2684.7599999999998C739.89 2683.91 740.12 2683.04 740.67 2682.39C741.2099999999999 2681.73 742.01 2681.35 742.8399999999999 2681.35ZM741.97 2712.18C741.96 2712.06 741.96 2711.94 741.96 2711.81C741.97 2711.57 742.09 2709.15 741.8100000000001 2707.33C742.34 2707.8199999999997 742.8900000000001 2708.63 742.96 2709.86C743.11 2712.6600000000003 744.86 2714.65 747.1500000000001 2714.65C747.2 2714.65 747.2500000000001 2714.65 747.3000000000001 2714.65C749.4900000000001 2714.56 750.73 2712.6600000000003 750.7900000000001 2710.9100000000003C750.83 2709.5400000000004 749.96 2708.55 748.95 2707.4C747.87 2706.17 746.6500000000001 2704.78 746.22 2702.56C746.1700000000001 2702.2999999999997 745.94 2700.96 745.8100000000001 2700.17L749.0600000000001 2700.17C749.35 2701.31 750.1800000000001 2703.76 752.37 2705.62C754.73 2707.63 755.83 2709.6 755.83 2711.7999999999997C755.83 2715.7299999999996 752.72 2718.9199999999996 748.9000000000001 2718.9199999999996C745.2 2718.9199999999996 742.1600000000001 2715.93 741.9700000000001 2712.18Z " fill="#000000" fill-opacity="1" transform="matrix(1,0,0,1,-739,-2672)"></path></svg>