<svg id="SvgjsSvg1011" xmlns="http://www.w3.org/2000/svg" version="1.1" xmlns:xlink="http://www.w3.org/1999/xlink" xmlns:svgjs="http://svgjs.com/svgjs" width="50" height="64"><defs id="SvgjsDefs1012"><circularGradient id="SvgjsCircularGradient1020" gradientUnits="userSpaceOnUse"><stop id="SvgjsStop1021" stop-opacity="1" stop-color="#f94242" offset="0"></stop><stop id="SvgjsStop1022" stop-opacity="1" stop-color="#4ca1bd" offset="1"></stop></circularGradient></defs><path id="SvgjsPath1013" d="M945.89 97.91C944.59 97.91 943.54 96.86 943.54 95.56C943.54 94.26 944.5899999999999 93.2 945.89 93.2C957.02 93.2 966.08 84.12 966.08 72.96000000000001C966.08 61.790000000000006 957.0200000000001 52.71000000000001 945.89 52.71000000000001C934.75 52.71000000000001 925.6999999999999 61.790000000000006 925.6999999999999 72.96000000000001C925.6999999999999 74.26 924.64 75.31 923.3499999999999 75.31C922.05 75.31 920.9999999999999 74.26 920.9999999999999 72.96000000000001C920.9999999999999 59.19000000000001 932.1699999999998 48.00000000000001 945.8899999999999 48.00000000000001C959.6099999999999 48.00000000000001 970.7799999999999 59.190000000000005 970.7799999999999 72.96000000000001C970.7799999999999 86.72000000000001 959.6099999999999 97.91000000000001 945.8899999999999 97.91000000000001Z " fill="#fec017" fill-opacity="1" transform="matrix(1,0,0,1,-921,-38)"></path><path id="SvgjsPath1014" d="M945.41 101.86C944.92 101.86 944.43 101.67 944.06 101.3L939.56 96.78999999999999C938.81 96.03999999999999 938.81 94.82 939.56 94.07L944.06 89.55999999999999C944.81 88.80999999999999 946.02 88.80999999999999 946.77 89.55999999999999C947.52 90.30999999999999 947.52 91.52999999999999 946.77 92.27999999999999L943.62 95.42999999999999L946.77 98.58C947.52 99.33 947.52 100.55 946.77 101.3C946.39 101.67 945.9 101.86 945.41 101.86Z " fill="#fec017" fill-opacity="1" transform="matrix(1,0,0,1,-921,-38)"></path><path id="SvgjsPath1015" d="M951.11 48.12C951.11 49.29 950.17 50.239999999999995 949 50.239999999999995L942.11 50.239999999999995C940.95 50.239999999999995 940 49.28999999999999 940 48.12L940 48.12C940 46.949999999999996 940.95 46 942.11 46L949 46C950.17 46 951.11 46.95 951.11 48.12Z " fill="#fec017" fill-opacity="1" transform="matrix(1,0,0,1,-921,-38)"></path><path id="SvgjsPath1016" d="M956.19 45.06C956.19 46.620000000000005 954.9300000000001 47.89 953.3800000000001 47.89L938.8200000000002 47.89C937.2600000000002 47.89 936.0000000000001 46.62 936.0000000000001 45.06L936.0000000000001 40.83C936.0000000000001 39.269999999999996 937.2600000000001 38 938.8200000000002 38L953.3800000000001 38C954.9300000000001 38 956.19 39.27 956.19 40.83L956.19 45.06Z " fill="#fed317" fill-opacity="1" transform="matrix(1,0,0,1,-921,-38)"></path><path id="SvgjsPath1017" d="M938.6 40.12L953.15 40.12C954.3199999999999 40.12 955.3299999999999 39.96 955.75 39.73C955.32 38.709999999999994 954.32 38 953.15 38L938.6 38C937.4300000000001 38 936.4200000000001 38.71 936 39.73C936.42 39.959999999999994 937.43 40.12 938.6 40.12Z " fill="#fec017" fill-opacity="1" transform="matrix(1,0,0,1,-921,-38)"></path><path id="SvgjsPath1018" d="M968.88 49.86C970.03 51.019999999999996 970.03 52.89 968.88 54.04L965.02 57.9C963.88 59.059999999999995 962.01 59.059999999999995 960.86 57.9L960.86 57.9C959.71 56.75 959.71 54.879999999999995 960.86 53.73L964.72 49.86C965.87 48.71 967.73 48.71 968.88 49.86Z " fill="#fec017" fill-opacity="1" transform="matrix(1,0,0,1,-921,-38)"></path><path id="SvgjsPath1019" d="M945.49 69.49C945.49 66.64 947.65 65 951.14 65C954.86 65 956.83 66.53 956.83 69.22C956.83 70.73 956.0500000000001 71.7 955.34 72.31C956.47 72.98 957.3100000000001 74.03 957.3100000000001 75.86C957.3100000000001 78.61 955.5500000000001 80.53999999999999 951.1400000000001 80.53999999999999C946.7300000000001 80.53999999999999 944.9900000000001 78.83999999999999 944.9900000000001 76.25999999999999C944.9900000000001 74.50999999999999 946.0800000000002 73.38 947.0600000000002 72.77C946.1200000000001 72.11999999999999 945.4900000000001 71.07 945.4900000000001 69.49ZM942.19 65.32C942.86 65.32 943.07 65.55 943.07 66.19999999999999L943.07 79.33999999999999C943.07 79.99 942.86 80.21999999999998 942.19 80.21999999999998L939.82 80.21999999999998C939.1500000000001 80.21999999999998 938.9200000000001 79.98999999999998 938.9200000000001 79.33999999999999L938.9200000000001 70.58999999999999L937.5100000000001 71.38C936.82 71.75999999999999 936.4600000000002 71.61 936.1400000000001 71.03L935.1600000000001 69.24C934.84 68.64999999999999 935.0100000000001 68.38 935.58 68.02L939.6700000000001 65.67C940.1600000000001 65.38 940.3900000000001 65.32000000000001 940.9300000000001 65.32000000000001ZM952.71 69.58C952.71 68.88 952.21 68.46 951.1600000000001 68.46C950.1500000000001 68.46 949.69 68.88 949.69 69.58C949.69 70.33 950.24 70.63 951.1800000000001 70.89999999999999L951.8100000000001 71.07C952.2900000000001 70.75 952.71 70.28999999999999 952.71 69.58ZM952.99 75.9C952.99 74.91000000000001 952.0600000000001 74.79 950.19 74.24000000000001C949.69 74.58000000000001 949.1400000000001 75.04 949.1400000000001 75.86000000000001C949.1400000000001 76.66000000000001 949.7300000000001 77.12000000000002 951.1200000000001 77.12000000000002C952.4600000000002 77.12000000000002 952.9900000000001 76.61000000000001 952.9900000000001 75.90000000000002Z " fill="url(#SvgjsCircularGradient1020)" transform="matrix(1,0,0,1,-921,-38)"></path><path id="SvgjsPath1023" d="M945.49 69.49C945.49 66.64 947.65 65 951.14 65C954.86 65 956.83 66.53 956.83 69.22C956.83 70.73 956.0500000000001 71.7 955.34 72.31C956.47 72.98 957.3100000000001 74.03 957.3100000000001 75.86C957.3100000000001 78.61 955.5500000000001 80.53999999999999 951.1400000000001 80.53999999999999C946.7300000000001 80.53999999999999 944.9900000000001 78.83999999999999 944.9900000000001 76.25999999999999C944.9900000000001 74.50999999999999 946.0800000000002 73.38 947.0600000000002 72.77C946.1200000000001 72.11999999999999 945.4900000000001 71.07 945.4900000000001 69.49ZM942.19 65.32C942.86 65.32 943.07 65.55 943.07 66.19999999999999L943.07 79.33999999999999C943.07 79.99 942.86 80.21999999999998 942.19 80.21999999999998L939.82 80.21999999999998C939.1500000000001 80.21999999999998 938.9200000000001 79.98999999999998 938.9200000000001 79.33999999999999L938.9200000000001 70.58999999999999L937.5100000000001 71.38C936.82 71.75999999999999 936.4600000000002 71.61 936.1400000000001 71.03L935.1600000000001 69.24C934.84 68.64999999999999 935.0100000000001 68.38 935.58 68.02L939.6700000000001 65.67C940.1600000000001 65.38 940.3900000000001 65.32000000000001 940.9300000000001 65.32000000000001ZM952.71 69.58C952.71 68.88 952.21 68.46 951.1600000000001 68.46C950.1500000000001 68.46 949.69 68.88 949.69 69.58C949.69 70.33 950.24 70.63 951.1800000000001 70.89999999999999L951.8100000000001 71.07C952.2900000000001 70.75 952.71 70.28999999999999 952.71 69.58ZM952.99 75.9C952.99 74.91000000000001 952.0600000000001 74.79 950.19 74.24000000000001C949.69 74.58000000000001 949.1400000000001 75.04 949.1400000000001 75.86000000000001C949.1400000000001 76.66000000000001 949.7300000000001 77.12000000000002 951.1200000000001 77.12000000000002C952.4600000000002 77.12000000000002 952.9900000000001 76.61000000000001 952.9900000000001 75.90000000000002Z " fill="#f94242" fill-opacity="1" transform="matrix(1,0,0,1,-921,-38)"></path></svg>