<svg id="SvgjsSvg1000" xmlns="http://www.w3.org/2000/svg" version="1.1" xmlns:xlink="http://www.w3.org/1999/xlink" xmlns:svgjs="http://svgjs.com/svgjs" width="303" height="120"><defs id="SvgjsDefs1001"></defs><path id="SvgjsPath1007" d="M474.47 4053.46L474.47 3999.4900000000002L469.12 3999.4900000000002L469.12 4053.46L461.12 4053.46L461.12 3999.4900000000002L455.77 3999.4900000000002L455.77 4057.4100000000003L471.63 4057.4100000000003L471.63 4068.0000000000005L476.98 4068.0000000000005L476.98 4053.4600000000005ZM336.81 4057.41L330.83 3999.49L322.39 3999.49L316.4 4057.41L321.53999999999996 4057.41L323.37999999999994 4037.95L329.8399999999999 4037.95L331.6699999999999 4057.41ZM439.71 4057.41L433.72999999999996 3999.49L425.28999999999996 3999.49L419.29999999999995 4057.41L424.43999999999994 4057.41L426.2799999999999 4037.95L432.7399999999999 4037.95L434.57999999999987 4057.41ZM512.66 4057.41L512.66 3999.49L506.52 3999.49L498.14 4043.29L497.91999999999996 4043.29L497.91999999999996 4010.54L498.10999999999996 3999.49L492.75999999999993 3999.49L492.75999999999993 4057.41L498.88999999999993 4057.41L507.2699999999999 4013.6099999999997L507.5299999999999 4013.6099999999997L507.5299999999999 4046.3199999999997L507.3099999999999 4057.41ZM396.66 4057.41L405.89000000000004 3999.49L400.71000000000004 3999.49L396.14000000000004 4034.08L391.57000000000005 3999.49L386.39000000000004 3999.49L393.43000000000006 4044.0299999999997L391.2800000000001 4057.41ZM255.62 3999C250.06 3999 247 4001.22 247 4006.28L247 4012.4900000000002L252.35 4012.4900000000002L252.35 4006.7900000000004C252.35 4003.8200000000006 253.17 4002.9200000000005 255.66 4002.9200000000005L257.24 4002.9200000000005C259.72 4002.9200000000005 260.53000000000003 4003.8300000000004 260.53000000000003 4006.7900000000004L260.53000000000003 4025.0900000000006L252.21000000000004 4025.0900000000006L252.21000000000004 4029.0400000000004L260.53000000000003 4029.0400000000004L260.53000000000003 4050.1200000000003C260.53000000000003 4053.0800000000004 259.72 4053.9900000000002 257.24 4053.9900000000002L255.66 4053.9900000000002C253.17 4053.9900000000002 252.35 4053.09 252.35 4050.1200000000003L252.35 4044.4200000000005L247 4044.4200000000005L247 4050.6300000000006C247 4055.6900000000005 250.06 4057.9100000000008 255.62 4057.9100000000008L257.29 4057.9100000000008C262.88 4057.9100000000008 265.88 4055.6800000000007 265.88 4050.6300000000006L265.88 4006.2800000000007C265.88 4001.2300000000005 262.88 3999.0000000000005 257.29 3999.0000000000005ZM365.55 4026.91L371.32 3999.49L366.38 3999.49L360.95 4024.95L358.21999999999997 4024.95L358.21999999999997 3999.49L352.86999999999995 3999.49L352.86999999999995 4057.41L358.21999999999997 4057.41L358.21999999999997 4028.8799999999997L360.89 4028.8799999999997L366.82 4057.41L371.76 4057.41ZM282.88 3999.49L282.88 4057.41L293.61 4057.41C299.17 4057.41 301.76 4056.1099999999997 301.76 4050.8199999999997L301.76 4032.0199999999995C301.76 4029.1099999999997 300.82 4026.1899999999996 296.88 4025.7399999999993C300.1 4025.2699999999995 301.35 4022.9699999999993 301.35 4020.0099999999993L301.35 4006.0799999999995C301.35 4000.7899999999995 298.70000000000005 3999.4899999999993 293.15000000000003 3999.4899999999993ZM288.23 4027.88L293.12 4027.88C295.6 4027.88 296.41 4028.78 296.41 4031.75L296.41 4049.62C296.41 4052.5899999999997 295.59000000000003 4053.49 293.1 4053.49L288.23 4053.49ZM326.48 4002.46L326.74 4002.46L327.44 4011.06L329.56 4034L323.65 4034L325.78 4011.07ZM429.38 4002.46L429.64 4002.46L430.34 4011.06L432.46 4034L426.54999999999995 4034L428.67999999999995 4011.07ZM288.23 4003.41L292.69 4003.41C295.18 4003.41 296 4004.31 296 4007.2799999999997L296 4020.0899999999997C296 4022.9599999999996 295.23 4023.91 292.93 4023.9599999999996L288.23 4023.9599999999996ZM544.13 4057.41L544.35 4046.3199999999997L544.35 4013.6099999999997L544.09 4013.6099999999997L535.71 4057.41L529.58 4057.41L529.58 3999.49L534.9300000000001 3999.49L534.74 4010.54L534.74 4043.29L534.96 4043.29L543.34 3999.49L549.48 3999.49L549.48 4057.41Z " fill="#bebebe" fill-opacity="1" transform="matrix(1,0,0,1,-247,-3948)"></path><path id="SvgjsPath1008" d="M490.71 3971.19L494.12 3958.89L490.74 3958.89L487.74 3969.97L486.44 3969.97L486.44 3958.89L483.05 3958.89L483.05 3969.97L481.75 3969.97L478.75 3958.89L475.37 3958.89L478.78000000000003 3971.19L475.1 3986.12L478.46000000000004 3986.12L481.75000000000006 3972.41L483.05000000000007 3972.41L483.05000000000007 3986.12L486.44000000000005 3986.12L486.44000000000005 3972.41L487.74000000000007 3972.41L491.0300000000001 3986.12L494.3900000000001 3986.12ZM284.93 3983.65L284.93 3958.89L274.71 3958.89L273.64 3981.1299999999997C273.53999999999996 3982.8599999999997 273.26 3983.5499999999997 272.34999999999997 3983.6499999999996L271.14 3983.6499999999996L271.14 3992.6099999999997L274.52 3992.6099999999997L274.52 3986.12L283.07 3986.12L283.07 3992.6099999999997L286.45 3992.6099999999997L286.45 3983.6499999999996ZM516.45 3948L513.07 3948L513.07 3950.61C513.07 3952.56 512.5300000000001 3953.1600000000003 511.03000000000003 3953.1600000000003L509.17 3953.1600000000003C506.29 3953.1600000000003 504.47 3954.63 504.54 3957.9500000000003L504.54 3981.6600000000003C504.54 3984.9800000000005 506.51000000000005 3986.4500000000003 510.08000000000004 3986.4500000000003L510.90000000000003 3986.4500000000003C514.45 3986.4500000000003 516.46 3984.9900000000002 516.46 3981.6600000000003L516.46 3963.4100000000003C516.46 3960.0800000000004 514.7 3958.6200000000003 511.81000000000006 3958.6200000000003L510.99000000000007 3958.6200000000003C509.6500000000001 3958.6200000000003 508.61000000000007 3958.9800000000005 507.9200000000001 3959.8L507.9200000000001 3958.13C507.9200000000001 3956.19 508.4600000000001 3955.59 509.9600000000001 3955.59L511.8200000000001 3955.59C514.69 3955.59 516.4500000000002 3954.1200000000003 516.4500000000002 3950.8ZM261.68 3950.6L261.68 3948L250 3948L250 3986.12L261.68 3986.12L261.68 3983.5299999999997L253.51000000000002 3983.5299999999997L253.51000000000002 3966.81L261.02000000000004 3966.81L261.02000000000004 3964.21L253.51000000000005 3964.21L253.51000000000005 3950.6ZM460.17 3995L465.72 3958.89L462.52000000000004 3958.89L459.86 3980.15L457.23 3958.89L454.02000000000004 3958.89L458.20000000000005 3985.91L456.81000000000006 3995ZM443.63 3986.12L443.63 3958.89L433.40999999999997 3958.89L432.34999999999997 3981.45C432.22999999999996 3983.3599999999997 431.92999999999995 3984 430.79999999999995 3984L430.21999999999997 3984L430.21999999999997 3986.45L432.39 3986.45C434.21999999999997 3986.45 435.49 3985.2799999999997 435.62 3982.97L436.68 3961.3599999999997L440.25 3961.3599999999997L440.25 3986.12ZM414.11 3958.62C410.54 3958.62 408.57 3960.0899999999997 408.57 3963.41L408.57 3981.66C408.57 3984.98 410.54 3986.45 414.11 3986.45L414.93 3986.45C418.49 3986.45 420.49 3984.99 420.49 3981.66L420.49 3978.75L417.11 3978.75L417.11 3981.47C417.11 3983.43 416.57 3984.02 415.06 3984.02L413.99 3984.02C412.49 3984.02 411.95 3983.42 411.95 3981.47L411.95 3963.6C411.95 3961.65 412.49 3961.0499999999997 413.99 3961.0499999999997L415.06 3961.0499999999997C416.57 3961.0499999999997 417.11 3961.64 417.11 3963.6L417.11 3966.3199999999997L420.49 3966.3199999999997L420.49 3963.41C420.49 3960.08 418.49 3958.62 414.93 3958.62ZM347.84 3958.62C344.28999999999996 3958.62 342.28999999999996 3960.08 342.28999999999996 3963.41L342.28999999999996 3966.08L345.66999999999996 3966.08L345.66999999999996 3963.6C345.66999999999996 3961.64 346.21 3961.0499999999997 347.71999999999997 3961.0499999999997L348.78999999999996 3961.0499999999997C350.28999999999996 3961.0499999999997 350.81999999999994 3961.6499999999996 350.81999999999994 3963.6L350.81999999999994 3970.29C350.1499999999999 3969.47 349.11999999999995 3969.11 347.75999999999993 3969.11L346.93999999999994 3969.11C344.04999999999995 3969.11 342.28999999999996 3970.57 342.28999999999996 3973.9L342.28999999999996 3981.6600000000003C342.28999999999996 3984.9900000000002 344.04999999999995 3986.4500000000003 346.93999999999994 3986.4500000000003L347.75999999999993 3986.4500000000003C349.41999999999996 3986.4500000000003 350.66999999999996 3985.8900000000003 351.3299999999999 3984.5200000000004L352.0399999999999 3986.1200000000003L354.2099999999999 3986.1200000000003L354.2099999999999 3963.4100000000003C354.2099999999999 3960.09 352.2399999999999 3958.6200000000003 348.6699999999999 3958.6200000000003ZM532.25 3958.62C528.7 3958.62 526.7 3960.08 526.7 3963.41L526.7 3966.08L530.08 3966.08L530.08 3963.6C530.08 3961.64 530.62 3961.0499999999997 532.13 3961.0499999999997L533.2 3961.0499999999997C534.7 3961.0499999999997 535.24 3961.6499999999996 535.24 3963.6L535.24 3970.29C534.5600000000001 3969.47 533.54 3969.11 532.17 3969.11L531.3499999999999 3969.11C528.4699999999999 3969.11 526.6999999999999 3970.57 526.6999999999999 3973.9L526.6999999999999 3981.6600000000003C526.6999999999999 3984.9900000000002 528.4699999999999 3986.4500000000003 531.3499999999999 3986.4500000000003L532.17 3986.4500000000003C533.8299999999999 3986.4500000000003 535.0799999999999 3985.8900000000003 535.74 3984.5200000000004L536.45 3986.1200000000003L538.62 3986.1200000000003L538.62 3963.4100000000003C538.62 3960.09 536.65 3958.6200000000003 533.08 3958.6200000000003ZM331.79 3986.12L331.79 3958.89L328.40000000000003 3958.89L328.40000000000003 3970.23L323.25000000000006 3970.23L323.25000000000006 3958.89L319.87000000000006 3958.89L319.87000000000006 3986.12L323.25000000000006 3986.12L323.25000000000006 3972.69L328.40000000000003 3972.69L328.40000000000003 3986.12ZM376.5 3986.12L376.5 3958.89L369.99 3958.89C366.47 3958.89 364.73 3959.75 364.73 3963.23L364.73 3967.82C364.73 3969.8 365.57 3971.32 367.69 3971.63C365.18 3971.9300000000003 364.58 3973.54 364.58 3975.58L364.58 3986.12L367.96999999999997 3986.12L367.96999999999997 3975.47C367.96999999999997 3973.52 368.49999999999994 3972.9199999999996 370.02 3972.9199999999996L373.12 3972.9199999999996L373.12 3986.1199999999994ZM308.86 3986.12L308.86 3958.89L304.96000000000004 3958.89L300.38000000000005 3979.21L300.21000000000004 3979.21L300.21000000000004 3966.16L300.33000000000004 3958.89L296.94000000000005 3958.89L296.94000000000005 3986.12L300.84000000000003 3986.12L305.42 3965.77L305.59000000000003 3965.77L305.59000000000003 3978.78L305.48 3986.1200000000003ZM511.02 3961.05C512.54 3961.05 513.0699999999999 3961.6400000000003 513.0699999999999 3963.6000000000004L513.0699999999999 3981.4700000000003C513.0699999999999 3983.4300000000003 512.54 3984.0200000000004 511.0199999999999 3984.0200000000004L509.9599999999999 3984.0200000000004C508.4599999999999 3984.0200000000004 507.9199999999999 3983.4200000000005 507.9199999999999 3981.4700000000003L507.9199999999999 3963.6000000000004C507.9199999999999 3961.6500000000005 508.4599999999999 3961.05 509.9599999999999 3961.05ZM277.97 3961.36L281.54 3961.36L281.54 3983.65L276.36 3983.65C276.74 3983.33 276.93 3981.89 277.01 3980.23ZM348.79 3971.54C350.23 3971.54 350.78000000000003 3972.09 350.82 3973.83L350.82 3981.73C350.78 3983.47 350.23 3984.02 348.79 3984.02L347.73 3984.02C346.21000000000004 3984.02 345.68 3983.43 345.68 3981.47L345.68 3974.0899999999997C345.68 3972.1299999999997 346.21 3971.5399999999995 347.73 3971.5399999999995ZM373.12 3961.32L373.12 3970.5L370.12 3970.5C368.65 3970.49 368.12 3969.88 368.12 3967.95L368.12 3963.87C368.12 3961.91 368.66 3961.3199999999997 370.17 3961.3199999999997ZM533.2 3971.54C534.6400000000001 3971.54 535.19 3972.09 535.24 3973.83L535.24 3981.73C535.19 3983.47 534.64 3984.02 533.2 3984.02L532.1400000000001 3984.02C530.6200000000001 3984.02 530.0900000000001 3983.43 530.0900000000001 3981.47L530.0900000000001 3974.0899999999997C530.0900000000001 3972.1299999999997 530.6200000000001 3971.5399999999995 532.1400000000001 3971.5399999999995Z " fill="#bebebe" fill-opacity="1" transform="matrix(1,0,0,1,-247,-3948)"></path></svg>