<svg id="SvgjsSvg1058" xmlns="http://www.w3.org/2000/svg" version="1.1" xmlns:xlink="http://www.w3.org/1999/xlink" xmlns:svgjs="http://svgjs.com/svgjs" width="34" height="34"><defs id="SvgjsDefs1059"></defs><path id="SvgjsPath1060" d="M1304.91 2685.24L1301.63 2685.24L1301.63 2682L1296.16 2682L1296.16 2685.24L1279.75 2685.24L1279.75 2682L1274.28 2682L1274.28 2685.24L1271 2685.24L1271 2689.56L1273.19 2689.56L1273.19 2706.84L1271 2706.84L1271 2711.1600000000003L1304.91 2711.1600000000003L1304.91 2706.84L1302.72 2706.84L1302.72 2689.56L1304.91 2689.56ZM1274.28 2706.84L1274.28 2689.56L1301.6299999999999 2689.56L1301.6299999999999 2706.84ZM1303.82 2710.08L1272.09 2710.08L1272.09 2707.92L1303.82 2707.92ZM1272.09 2688.48L1272.09 2686.32L1275.3799999999999 2686.32L1275.3799999999999 2683.0800000000004L1278.6599999999999 2683.0800000000004L1278.6599999999999 2686.32L1297.2499999999998 2686.32L1297.2499999999998 2683.0800000000004L1300.5399999999997 2683.0800000000004L1300.5399999999997 2686.32L1303.8199999999997 2686.32L1303.8199999999997 2688.48Z " fill="#000000" fill-opacity="1" transform="matrix(1,0,0,1,-1271,-2678)"></path><path id="SvgjsPath1061" d="M1281 2684L1281 2683L1294 2683L1294 2684Z " fill="#000000" fill-opacity="1" transform="matrix(1,0,0,1,-1271,-2678)"></path><path id="SvgjsPath1062" d="M1286.71 2702.8L1300.16 2702.8L1300.16 2701.7200000000003L1287.8100000000002 2701.7200000000003L1293.2800000000002 2696.32L1288.2400000000002 2696.32L1290.1500000000003 2694.1600000000003L1300.1600000000003 2694.1600000000003L1300.1600000000003 2693.0800000000004L1291.1100000000004 2693.0800000000004L1292.0700000000004 2692.0000000000005L1286.1500000000003 2692.0000000000005L1285.6000000000004 2693.0800000000004L1275.0000000000005 2693.0800000000004L1275.0000000000005 2694.1600000000003L1285.0500000000004 2694.1600000000003L1282.3200000000004 2699.5600000000004L1286.2400000000005 2699.5600000000004L1285.3900000000006 2701.8L1285.3900000000006 2701.7200000000003L1275.0000000000005 2701.7200000000003L1275.0000000000005 2702.8L1285.0100000000004 2702.8L1283.9900000000005 2705.4900000000002ZM1286.82 2693.08L1289.6599999999999 2693.08L1285.83 2697.4L1290.6399999999999 2697.4L1286.79 2701.2000000000003L1287.82 2698.4800000000005L1284.09 2698.4800000000005Z " fill="#000000" fill-opacity="1" transform="matrix(1,0,0,1,-1271,-2678)"></path><path id="SvgjsPath1063" d="M1275 2680L1275 2679L1278 2679L1278 2680Z " fill="#000000" fill-opacity="1" transform="matrix(1,0,0,1,-1271,-2678)"></path><path id="SvgjsPath1064" d="M1298.09 2681.24L1299.1899999999998 2681.24L1299.1899999999998 2680.16L1300.2799999999997 2680.16L1300.2799999999997 2679.08L1299.1899999999998 2679.08L1299.1899999999998 2678L1298.09 2678L1298.09 2679.08L1297 2679.08L1297 2680.16L1298.09 2680.16Z " fill="#000000" fill-opacity="1" transform="matrix(1,0,0,1,-1271,-2678)"></path><path id="SvgjsPath1065" d="M1275 2691L1275 2690L1276 2690L1276 2691Z " fill="#000000" fill-opacity="1" transform="matrix(1,0,0,1,-1271,-2678)"></path><path id="SvgjsPath1066" d="M1278 2691L1278 2690L1279 2690L1279 2691Z " fill="#000000" fill-opacity="1" transform="matrix(1,0,0,1,-1271,-2678)"></path><path id="SvgjsPath1067" d="M1275 2706L1275 2705L1276 2705L1276 2706Z " fill="#000000" fill-opacity="1" transform="matrix(1,0,0,1,-1271,-2678)"></path><path id="SvgjsPath1068" d="M1299 2691L1299 2690L1300 2690L1300 2691Z " fill="#000000" fill-opacity="1" transform="matrix(1,0,0,1,-1271,-2678)"></path><path id="SvgjsPath1069" d="M1297 2691L1297 2690L1298 2690L1298 2691Z " fill="#000000" fill-opacity="1" transform="matrix(1,0,0,1,-1271,-2678)"></path></svg>