<svg id="SvgjsSvg1024" xmlns="http://www.w3.org/2000/svg" version="1.1" xmlns:xlink="http://www.w3.org/1999/xlink" xmlns:svgjs="http://svgjs.com/svgjs" width="57" height="57"><defs id="SvgjsDefs1025"><clipPath id="SvgjsClipPath1028"><path id="SvgjsPath1027" d="M1051 70C1051 54.53603 1063.53603 42 1079 42C1094.46397 42 1107 54.53603 1107 70C1107 85.46397 1094.46397 98 1079 98C1063.53603 98 1051 85.46397 1051 70Z " fill="#ffffff"></path></clipPath><circularGradient id="SvgjsCircularGradient1031" gradientUnits="userSpaceOnUse"><stop id="SvgjsStop1032" stop-opacity="1" stop-color="#f94242" offset="0"></stop><stop id="SvgjsStop1033" stop-opacity="1" stop-color="#4ca1bd" offset="1"></stop></circularGradient></defs><path id="SvgjsPath1026" d="M1051 70C1051 54.53603 1063.53603 42 1079 42C1094.46397 42 1107 54.53603 1107 70C1107 85.46397 1094.46397 98 1079 98C1063.53603 98 1051 85.46397 1051 70Z " fill-opacity="0" fill="#ffffff" stroke-dasharray="0" stroke-linejoin="miter" stroke-linecap="butt" stroke-opacity="1" stroke="#fec017" stroke-miterlimit="50" stroke-width="6" clip-path="url(&quot;#SvgjsClipPath1028&quot;)" transform="matrix(1,0,0,1,-1050.5,-41.5)"></path><path id="SvgjsPath1029" d="M1051 70C1051 54.53603 1063.53603 42 1079 42C1094.46397 42 1107 54.53603 1107 70C1107 85.46397 1094.46397 98 1079 98C1063.53603 98 1051 85.46397 1051 70Z " fill-opacity="0" fill="#ffffff" stroke-dasharray="0" stroke-linejoin="miter" stroke-linecap="butt" stroke-opacity="1" stroke="#fec017" stroke-miterlimit="50" stroke-width="1" transform="matrix(1,0,0,1,-1050.5,-41.5)"></path><path id="SvgjsPath1030" d="M1073.45 69.4L1072 69.4L1072 72.41000000000001L1073.45 72.41000000000001L1073.45 74.36000000000001L1072 74.36000000000001L1072 77.37000000000002L1073.45 77.37000000000002L1073.45 79.95000000000002L1077.69 79.95000000000002L1077.69 77.37000000000002L1082.42 77.37000000000002L1082.42 74.36000000000001L1077.69 74.36000000000001L1077.69 72.41000000000001L1078.92 72.41000000000001C1085.67 72.41000000000001 1086.28 68.26 1086.28 65.89000000000001C1086.28 63.31000000000002 1084.8999999999999 60.000000000000014 1078.8799999999999 60.000000000000014C1076.2499999999998 60.000000000000014 1073.4499999999998 60.58000000000001 1073.4499999999998 60.58000000000001ZM1077.69 63.19C1077.69 63.19 1078.56 63.07 1079.1100000000001 63.07C1080.98 63.07 1081.94 64.06 1081.94 66.12C1081.94 68.15 1081.2 69.4 1078.69 69.4L1077.69 69.4Z " fill="url(#SvgjsCircularGradient1031)" transform="matrix(1,0,0,1,-1050.5,-41.5)"></path><path id="SvgjsPath1034" d="M1073.45 69.4L1072 69.4L1072 72.41000000000001L1073.45 72.41000000000001L1073.45 74.36000000000001L1072 74.36000000000001L1072 77.37000000000002L1073.45 77.37000000000002L1073.45 79.95000000000002L1077.69 79.95000000000002L1077.69 77.37000000000002L1082.42 77.37000000000002L1082.42 74.36000000000001L1077.69 74.36000000000001L1077.69 72.41000000000001L1078.92 72.41000000000001C1085.67 72.41000000000001 1086.28 68.26 1086.28 65.89000000000001C1086.28 63.31000000000002 1084.8999999999999 60.000000000000014 1078.8799999999999 60.000000000000014C1076.2499999999998 60.000000000000014 1073.4499999999998 60.58000000000001 1073.4499999999998 60.58000000000001ZM1077.69 63.19C1077.69 63.19 1078.56 63.07 1079.1100000000001 63.07C1080.98 63.07 1081.94 64.06 1081.94 66.12C1081.94 68.15 1081.2 69.4 1078.69 69.4L1077.69 69.4Z " fill="#f94242" fill-opacity="1" transform="matrix(1,0,0,1,-1050.5,-41.5)"></path></svg>