<svg id="SvgjsSvg1000" xmlns="http://www.w3.org/2000/svg" version="1.1" xmlns:xlink="http://www.w3.org/1999/xlink" xmlns:svgjs="http://svgjs.com/svgjs" width="231" height="78"><defs id="SvgjsDefs1001"></defs><path id="SvgjsPath1007" d="M375.44 103.54L375.44 110.19000000000001L372.41 110.19000000000001L372.41 105.71000000000001L366.20000000000005 105.71000000000001L366.20000000000005 81.21000000000001L369.23 81.21000000000001L369.23 103.54L371.3 103.54L371.3 81.21000000000001L374.32 81.21000000000001L374.32 103.54ZM356.98 105.71L356.44 97.82L354.44 97.82L353.9 105.71L350.96999999999997 105.71L353.03999999999996 81.21L357.84 81.21L359.90999999999997 105.71ZM313.74 105.71L313.2 97.82L311.19 97.82L310.65 105.71L307.72999999999996 105.71L309.79999999999995 81.21L314.59 81.21L316.65999999999997 105.71ZM387.4 105.71L387.4 101.02L387.52 89.86L387.39 89.86L384.89 105.71L381.63 105.71L381.63 81.21L384.65999999999997 81.21L384.65999999999997 85.86999999999999L384.53999999999996 97.05999999999999L384.66999999999996 97.05999999999999L387.16999999999996 81.21L390.42999999999995 81.21L390.42999999999995 105.71ZM338.87 105.71L339.7 100.08999999999999L336.97999999999996 81.21L339.90999999999997 81.21L341.22999999999996 94.6L342.54999999999995 81.21L345.47999999999996 81.21L341.9 105.71ZM283.43 81C285.89 81 287.15000000000003 81.94 287.15000000000003 84.08L287.15000000000003 102.84C287.15000000000003 104.97 285.89000000000004 105.92 283.43 105.92L282.72 105.92C280.29 105.92 279 104.98 279 102.84L279 100.01L282.03 100.01L282.03 102.94000000000001C282.03 103.53000000000002 282.23999999999995 103.76 282.75 103.76L283.4 103.76C283.90999999999997 103.76 284.12 103.53 284.12 102.94000000000001L284.12 94.01000000000002L281.21 94.01000000000002L281.21 91.84000000000002L284.12 91.84000000000002L284.12 83.98000000000002C284.12 83.39000000000001 283.91 83.16000000000003 283.4 83.16000000000003L282.75 83.16000000000003C282.24 83.16000000000003 282.03 83.39000000000003 282.03 83.98000000000002L282.03 86.91000000000003L279 86.91000000000003L279 84.08000000000003C279 81.94000000000003 280.29 81.00000000000003 282.72 81.00000000000003ZM298.22 81.21C300.65000000000003 81.21 301.68 81.55999999999999 301.68 83.85L301.68 90.08999999999999C301.68 91.27999999999999 301.16 92.29999999999998 299.59000000000003 92.38C301.56000000000006 92.44 301.86 93.85 301.86 94.97L301.86 103.07C301.86 105.35 300.86 105.71 298.43 105.71L293.71 105.71L293.71 81.21ZM331.11 105.71L328.32 105.71L326.48 93.92999999999999L325.99 93.92999999999999L325.99 105.71L322.96000000000004 105.71L322.96000000000004 81.21L325.99 81.21L325.99 91.75999999999999L326.51 91.75999999999999L328.14 81.21L330.93 81.21L329.14 92.83999999999999ZM355.2 86.11L354.56 95.65L356.32 95.65L355.67 86.10000000000001L355.5 82.72000000000001L355.37 82.72000000000001ZM311.96 86.11L311.32 95.65L313.07 95.65L312.43 86.10000000000001L312.26 82.72000000000001L312.13 82.72000000000001ZM296.74 103.55L298.1 103.55C298.61 103.55 298.83000000000004 103.32 298.83000000000004 102.73L298.83000000000004 94.37C298.83000000000004 93.78 298.62000000000006 93.55000000000001 298.1 93.55000000000001L296.74 93.55000000000001ZM296.74 91.39L297.96000000000004 91.39C298.45000000000005 91.38 298.65000000000003 91.15 298.65000000000003 90.57000000000001L298.65000000000003 84.19000000000001C298.65000000000003 83.60000000000001 298.44000000000005 83.37000000000002 297.93 83.37000000000002L296.74 83.37000000000002ZM405.75 105.71L405.75 81.21L402.49 81.21L399.99 97.05999999999999L399.87 97.05999999999999L399.99 85.86999999999999L399.99 81.21L396.96000000000004 81.21L396.96000000000004 105.71L400.22 105.71L402.72 89.86L402.85 89.86L402.73 101.02L402.73 105.71Z " fill="#f70404" fill-opacity="1" transform="matrix(1,0,0,1,-175,-46)"></path><path id="SvgjsPath1008" d="M384.91 67.42L386.34000000000003 60.13L385.04 60.13L383.69 66.9L383.07 66.9L383.07 60.13000000000001L381.65999999999997 60.13000000000001L381.65999999999997 66.9L381.03 66.9L379.69 60.13000000000001L378.39 60.13000000000001L379.81 67.42000000000002L378.27 75.53000000000002L379.58 75.53000000000002L381.05 67.94000000000001L381.66 67.94000000000001L381.66 75.53000000000002L383.07000000000005 75.53000000000002L383.07000000000005 67.94000000000001L383.68000000000006 67.94000000000001L385.1500000000001 75.53000000000002L386.4600000000001 75.53000000000002ZM294.97 74.48L294.97 60.13L290.6 60.13L290.07000000000005 73.46000000000001C290.05000000000007 74.16000000000001 289.9200000000001 74.44000000000001 289.55000000000007 74.48L289.19000000000005 74.48L289.0400000000001 74.53L289.0400000000001 78.15L290.4600000000001 78.15L290.4600000000001 75.53L294.1800000000001 75.53L294.1800000000001 78.15L295.59000000000015 78.15L295.59000000000015 74.48ZM364.06 75.53L364.06 60.13L359.69 60.13L359.16 73.59C359.13000000000005 74.35000000000001 359 74.62 358.55 74.62L358.31 74.62L358.31 75.66000000000001L359.24 75.66000000000001C359.97 75.66000000000001 360.49 75.18 360.53000000000003 74.26L361.04 61.18000000000001L362.65000000000003 61.18000000000001L362.65000000000003 75.53ZM325.59 75.53L324.01 60.13L321.78 60.13L320.19 75.53L321.55 75.53L322.04 70.36L323.75 70.36L324.23 75.53ZM405.89 75.53L404.31 60.13L402.08 60.13L400.49 75.53L401.85 75.53L402.34000000000003 70.36L404.05 70.36L404.53000000000003 75.53ZM305.49 75.53L305.49 60.13L303.87 60.13L301.65 71.78L301.59 71.78L301.59 63.07L301.64 60.13L300.21999999999997 60.13L300.21999999999997 75.53L301.84999999999997 75.53L304.05999999999995 63.89L304.12999999999994 63.89L304.12999999999994 72.58L304.06999999999994 75.53ZM371.49 75.53L373.93 60.13L372.56 60.13L371.35 69.33L370.14000000000004 60.129999999999995L368.77000000000004 60.129999999999995L370.63000000000005 71.97L370.06000000000006 75.53ZM351.25 60C349.77 60 348.98 60.59 348.98 61.93L348.98 73.73C348.98 75.07000000000001 349.77000000000004 75.66000000000001 351.25 75.66000000000001L351.7 75.66000000000001C353.17 75.66000000000001 353.97999999999996 75.07000000000001 353.97999999999996 73.73L353.97999999999996 71.88000000000001L352.55999999999995 71.88000000000001L352.55999999999995 73.59C352.55999999999995 74.38000000000001 352.3399999999999 74.62 351.67999999999995 74.62L351.2699999999999 74.62C350.6099999999999 74.62 350.3999999999999 74.38000000000001 350.3999999999999 73.59L350.3999999999999 62.07000000000001C350.3999999999999 61.28000000000001 350.6099999999999 61.040000000000006 351.2699999999999 61.040000000000006L351.67999999999995 61.040000000000006C352.34 61.040000000000006 352.55999999999995 61.28000000000001 352.55999999999995 62.07000000000001L352.55999999999995 63.78000000000001L353.97999999999996 63.78000000000001L353.97999999999996 61.93000000000001C353.97999999999996 60.59 353.16999999999996 60.00000000000001 351.7 60.00000000000001ZM334.93 75.53L334.93 60.13L332.15000000000003 60.13C330.68 60.13 329.99 60.480000000000004 329.99 61.88L329.99 65.84C329.99 66.64 330.33 67.25 331.19 67.38000000000001C330.17 67.50000000000001 329.93 68.27000000000001 329.93 69.03000000000002L329.93 75.53000000000002L331.34000000000003 75.53000000000002L331.34000000000003 68.96000000000001C331.34000000000003 68.22000000000001 331.54 67.96000000000001 332.12 67.93L333.51 67.93L333.51 75.53ZM315.49 75.53L315.49 60.13L314.07 60.13L314.07 66.68L311.90999999999997 66.68L311.90999999999997 60.13000000000001L310.48999999999995 60.13000000000001L310.48999999999995 75.53000000000002L311.90999999999997 75.53000000000002L311.90999999999997 67.73000000000002L314.07 67.73000000000002L314.07 75.53000000000002ZM395.82 61.18L395.82 60.13L391.17 60.13L391.17 75.53L394.01 75.53C395.48 75.53 396.15999999999997 75.18 396.15999999999997 73.78L396.15999999999997 68.27C396.15999999999997 66.86 395.47999999999996 66.50999999999999 394.01 66.50999999999999L392.58 66.50999999999999L392.58 61.17999999999999ZM284.72 61.18L284.72 60.13L280 60.13L280 75.53L284.72 75.53L284.72 74.48L281.42 74.48L281.42 67.73L284.45 67.73L284.45 66.68L281.42 66.68L281.42 61.18000000000001ZM291.95 61.18L293.56 61.18L293.56 74.48L291.21 74.48C291.35999999999996 74.35000000000001 291.46999999999997 73.44 291.47999999999996 73.08ZM392.58 67.56L393.87 67.56C394.53000000000003 67.56 394.75 67.8 394.75 68.59L394.75 73.46000000000001C394.75 74.25000000000001 394.53 74.49000000000001 393.87 74.49000000000001L392.58 74.49000000000001ZM322.86 60.92L322.93 60.92L323.11 63.21L323.67 69.31L322.11 69.31L322.67 63.21ZM333.51 61.17L333.51 66.9L332.18 66.9C331.6 66.87 331.41 66.61 331.41 65.87L331.41 62.2C331.41 61.410000000000004 331.62 61.17 332.28000000000003 61.17ZM403.16 60.92L403.23 60.92L403.41 63.21L403.98 69.31L402.41 69.31L402.97 63.21Z " fill="#f70404" fill-opacity="1" transform="matrix(1,0,0,1,-175,-46)"></path><path id="SvgjsPath1009" d="M175 51C175 48.23858 177.23858 46 180 46L248 46C250.76142 46 253 48.23858 253 51L253 119C253 121.76142 250.76142 124 248 124L180 124C177.23858 124 175 121.76142 175 119Z " fill="#ffec00" fill-opacity="1" transform="matrix(1,0,0,1,-175,-46)"></path><path id="SvgjsPath1010" d="M246.15 84.03L246.15 77.39L250.15 77.39L250.15 94.69L238.05 94.66C237.85000000000002 93.17 237.24 91.97999999999999 236.26000000000002 91.06C235.28000000000003 90.15 234.07000000000002 89.69 232.63000000000002 89.69C231.17000000000002 89.69 229.95000000000002 90.14 228.97000000000003 91.03999999999999C227.98000000000002 91.94 227.40000000000003 93.16 227.25000000000003 94.69L219.33000000000004 94.69L219.33000000000004 84.03L230.06000000000003 84.03L230.06000000000003 80.38L219.26000000000002 72.91C218.98000000000002 72.72 218.75000000000003 72.6 218.55 72.53C218.34 72.46000000000001 218.13000000000002 72.42 217.91000000000003 72.42C217.51000000000002 72.42 217.21000000000004 72.57000000000001 217.00000000000003 72.84C216.79000000000002 73.12 216.61000000000004 73.7 216.48000000000002 74.62L214.29000000000002 91.4C214.19000000000003 91.83000000000001 213.99 92.15 213.70000000000002 92.37C213.4 92.57000000000001 212.97000000000003 92.68 212.44000000000003 92.68C212.24000000000004 92.68 212.07000000000002 92.66000000000001 211.95000000000002 92.65C211.85000000000002 92.64 211.74 92.63000000000001 211.64000000000001 92.60000000000001L211.02 91.32000000000001L206.75 92.06C206.14 91.10000000000001 205.42 90.35000000000001 204.58 89.84C203.72 89.33 202.79000000000002 89.08 201.74 89.08C200.26000000000002 89.08 199.06 89.58 198.13 90.58C197.2 91.56 196.7 92.88 196.64 94.51L179 97.62L179 81.80000000000001L190.45 79.75000000000001L198 85.81000000000002L208.73 74.47000000000001L208.79999999999998 75.83000000000001L199.55999999999997 85.53000000000002L212.43999999999997 83.24000000000001L212.50999999999996 87.57000000000001L211.63999999999996 87.71000000000001L211.78999999999996 91.19000000000001C211.82999999999996 91.19000000000001 211.90999999999997 91.21000000000001 211.98999999999995 91.23000000000002C212.07999999999996 91.24000000000002 212.14999999999995 91.25000000000001 212.19999999999996 91.25000000000001C212.44999999999996 91.25000000000001 212.63999999999996 91.19000000000001 212.75999999999996 91.06000000000002C212.87999999999997 90.95000000000002 212.94999999999996 90.73000000000002 212.99999999999997 90.42000000000002L215.18999999999997 73.65000000000002C215.32999999999996 72.70000000000002 215.56999999999996 72.01000000000002 215.92999999999998 71.61000000000001C216.26999999999998 71.20000000000002 216.76999999999998 71.00000000000001 217.42 71.00000000000001C217.73999999999998 71.00000000000001 218.05999999999997 71.02000000000001 218.36999999999998 71.08000000000001C218.68999999999997 71.14000000000001 219.00999999999996 71.25000000000001 219.32999999999998 71.41000000000001ZM226.1 93.06C226.56 91.43 227.34 90.2 228.45 89.33C229.54999999999998 88.48 230.89999999999998 88.05 232.48999999999998 88.05C234.17999999999998 88.05 235.6 88.47 236.73 89.3C237.86999999999998 90.14 238.73999999999998 91.38 239.34 93.06L246.15 93.06L246.15 85.67L220.96 85.67L220.96 93.06ZM196.36 86.08L190 80.66L183.27 81.8L184.35000000000002 88.12ZM228.08 95.11C228.08 93.87 228.53 92.82 229.43 91.9C230.34 91 231.4 90.55000000000001 232.63 90.55000000000001C233.89 90.55000000000001 234.96 91.00000000000001 235.85 91.89000000000001C236.73999999999998 92.78000000000002 237.19 93.85000000000001 237.19 95.11000000000001C237.19 96.36000000000001 236.74 97.43 235.85 98.32000000000001C234.96 99.21000000000001 233.89 99.66000000000001 232.63 99.66000000000001C231.38 99.66000000000001 230.31 99.21000000000001 229.42 98.32000000000001C228.53 97.43 228.07999999999998 96.36000000000001 228.07999999999998 95.11000000000001ZM204.81 91.56C205.61 92.36 206.01 93.34 206.01 94.49000000000001C206.01 95.61000000000001 205.62 96.55000000000001 204.82999999999998 97.34C204.04 98.13000000000001 203.08999999999997 98.52000000000001 201.98 98.52000000000001C200.85 98.52000000000001 199.88 98.12 199.06 97.32000000000001C198.26 96.53 197.85 95.58000000000001 197.85 94.49000000000001C197.85 93.36000000000001 198.26 92.39000000000001 199.04999999999998 91.57000000000001C199.85 90.77000000000001 200.79 90.36000000000001 201.89 90.36000000000001C203.04 90.36000000000001 204.01999999999998 90.77000000000001 204.80999999999997 91.56000000000002ZM203.76 92.68C203.29999999999998 92.18 202.73 91.93 202.04999999999998 91.93C201.32 91.93 200.68999999999997 92.15 200.17999999999998 92.59C199.67 93.03 199.42 93.53 199.42 94.11C199.42 94.99 199.64 95.69 200.08999999999997 96.2C200.53999999999996 96.71000000000001 201.14 96.96000000000001 201.87999999999997 96.96000000000001C202.59999999999997 96.96000000000001 203.19999999999996 96.72000000000001 203.69999999999996 96.24000000000001C204.19999999999996 95.77000000000001 204.44999999999996 95.2 204.44999999999996 94.55000000000001C204.44999999999996 93.79 204.21999999999997 93.16000000000001 203.75999999999996 92.68ZM231 96.77C231.41 97.19 231.96 97.41 232.63 97.41C233.31 97.41 233.85 97.19 234.29 96.77C234.72 96.33 234.92999999999998 95.78 234.92999999999998 95.11C234.92999999999998 94.42999999999999 234.71999999999997 93.89 234.29 93.45C233.85 93.02 233.31 92.81 232.63 92.81C231.96 92.81 231.41 93.02 231 93.45C230.58 93.89 230.37 94.43 230.37 95.11C230.37 95.78 230.58 96.33 231 96.77ZM181.92 82.02L179.85999999999999 82.42999999999999L179.85999999999999 88.94L183.07 88.34Z " fill="#e30613" fill-opacity="1" transform="matrix(1,0,0,1,-175,-46)"></path></svg>