<svg id="SvgjsSvg1051" xmlns="http://www.w3.org/2000/svg" version="1.1" xmlns:xlink="http://www.w3.org/1999/xlink" xmlns:svgjs="http://svgjs.com/svgjs" width="47" height="47"><defs id="SvgjsDefs1052"></defs><path id="SvgjsPath1053" d="M964 2063C964 2060.23858 966.23858 2058 969 2058L1006 2058C1008.76142 2058 1011 2060.23858 1011 2063L1011 2100C1011 2102.76142 1008.76142 2105 1006 2105L969 2105C966.23858 2105 964 2102.76142 964 2100Z " fill="#ffec00" fill-opacity="1" transform="matrix(1,0,0,1,-964,-2058)"></path><path id="SvgjsPath1054" d="M1006.58 2080.73L1006.58 2076.79L1009 2076.79L1009 2087.05L1001.69 2087.03C1001.57 2086.15 1001.2 2085.44 1000.61 2084.9C1000.01 2084.36 999.28 2084.08 998.41 2084.08C997.53 2084.08 996.79 2084.35 996.1999999999999 2084.89C995.6099999999999 2085.42 995.2499999999999 2086.15 995.16 2087.0499999999997L990.37 2087.0499999999997L990.37 2080.7299999999996L996.86 2080.7299999999996L996.86 2078.5599999999995L990.33 2074.1299999999997C990.1700000000001 2074.0199999999995 990.0200000000001 2073.95 989.9000000000001 2073.91C989.7800000000001 2073.87 989.6500000000001 2073.8399999999997 989.5100000000001 2073.8399999999997C989.2800000000001 2073.8399999999997 989.0900000000001 2073.93 988.9700000000001 2074.0899999999997C988.8400000000001 2074.2599999999998 988.7300000000001 2074.6 988.6500000000001 2075.1499999999996L987.33 2085.0999999999995C987.2700000000001 2085.3599999999997 987.1500000000001 2085.5499999999993 986.97 2085.6699999999996C986.7900000000001 2085.7899999999995 986.53 2085.8599999999997 986.21 2085.8599999999997C986.09 2085.8599999999997 985.99 2085.8499999999995 985.9200000000001 2085.8399999999997C985.85 2085.8399999999997 985.7900000000001 2085.8299999999995 985.73 2085.8199999999997L985.35 2085.0599999999995L982.77 2085.4899999999993C982.4 2084.919999999999 981.97 2084.479999999999 981.46 2084.1799999999994C980.94 2083.8699999999994 980.38 2083.7299999999996 979.75 2083.7299999999996C978.85 2083.7299999999996 978.13 2084.0199999999995 977.56 2084.6099999999997C977 2085.2 976.6999999999999 2085.9799999999996 976.66 2086.95L966 2088.79L966 2079.41L972.92 2078.19L977.4799999999999 2081.79L983.9699999999999 2075.06L984.0099999999999 2075.86L978.4299999999998 2081.6200000000003L986.2099999999998 2080.26L986.2499999999998 2082.8300000000004L985.7299999999998 2082.9100000000003L985.8199999999998 2084.9800000000005C985.8399999999998 2084.9800000000005 985.8899999999999 2084.9900000000007 985.9399999999998 2085.0000000000005C985.9899999999998 2085.0100000000007 986.0399999999998 2085.0100000000007 986.0699999999998 2085.0100000000007C986.2199999999998 2085.0100000000007 986.3299999999998 2084.9800000000005 986.3999999999999 2084.9000000000005C986.4699999999999 2084.8300000000004 986.5199999999999 2084.7000000000007 986.5499999999998 2084.5200000000004L987.8699999999999 2074.5700000000006C987.9599999999999 2074.0100000000007 988.0999999999999 2073.600000000001 988.3199999999999 2073.3600000000006C988.52 2073.120000000001 988.8299999999999 2073.0000000000005 989.2199999999999 2073.0000000000005C989.41 2073.0000000000005 989.6099999999999 2073.0100000000007 989.79 2073.0500000000006C989.99 2073.080000000001 990.18 2073.1500000000005 990.37 2073.2500000000005ZM994.47 2086.08C994.75 2085.12 995.22 2084.39 995.88 2083.87C996.55 2083.37 997.37 2083.1099999999997 998.33 2083.1099999999997C999.35 2083.1099999999997 1000.21 2083.3599999999997 1000.89 2083.8499999999995C1001.58 2084.3499999999995 1002.11 2085.0899999999992 1002.47 2086.0799999999995L1006.58 2086.0799999999995L1006.58 2081.6999999999994L991.36 2081.6999999999994L991.36 2086.0799999999995ZM976.49 2081.95L972.65 2078.73L968.5799999999999 2079.41L969.2299999999999 2083.16ZM995.66 2087.3C995.66 2086.57 995.93 2085.94 996.48 2085.4C997.03 2084.87 997.6700000000001 2084.6 998.41 2084.6C999.17 2084.6 999.8199999999999 2084.87 1000.36 2085.39C1000.89 2085.92 1001.17 2086.5499999999997 1001.17 2087.2999999999997C1001.17 2088.0399999999995 1000.89 2088.68 1000.36 2089.2099999999996C999.82 2089.7299999999996 999.17 2089.9999999999995 998.41 2089.9999999999995C997.65 2089.9999999999995 997.01 2089.7299999999996 996.4699999999999 2089.2099999999996C995.93 2088.6799999999994 995.66 2088.0399999999995 995.66 2087.2999999999997ZM981.6 2085.2C982.08 2085.6699999999996 982.33 2086.25 982.33 2086.93C982.33 2087.5899999999997 982.09 2088.16 981.61 2088.62C981.14 2089.0899999999997 980.5600000000001 2089.3199999999997 979.89 2089.3199999999997C979.21 2089.3199999999997 978.62 2089.0899999999997 978.13 2088.6099999999997C977.64 2088.14 977.39 2087.5799999999995 977.39 2086.93C977.39 2086.27 977.64 2085.69 978.12 2085.2C978.6 2084.73 979.17 2084.49 979.83 2084.49C980.5300000000001 2084.49 981.12 2084.7299999999996 981.6 2085.2ZM980.96 2085.86C980.6800000000001 2085.56 980.34 2085.4100000000003 979.9300000000001 2085.4100000000003C979.49 2085.4100000000003 979.11 2085.55 978.8000000000001 2085.8100000000004C978.4900000000001 2086.0700000000006 978.34 2086.3600000000006 978.34 2086.7100000000005C978.34 2087.2300000000005 978.48 2087.6400000000003 978.75 2087.9500000000003C979.02 2088.2500000000005 979.38 2088.4 979.83 2088.4C980.26 2088.4 980.63 2088.26 980.9300000000001 2087.9700000000003C981.23 2087.69 981.3800000000001 2087.36 981.3800000000001 2086.9700000000003C981.3800000000001 2086.5200000000004 981.2400000000001 2086.15 980.9600000000002 2085.86ZM997.43 2088.28C997.68 2088.5400000000004 998.01 2088.6600000000003 998.41 2088.6600000000003C998.8199999999999 2088.6600000000003 999.15 2088.5400000000004 999.42 2088.28C999.68 2088.02 999.8 2087.7000000000003 999.8 2087.3C999.8 2086.9 999.68 2086.5800000000004 999.42 2086.3100000000004C999.15 2086.0600000000004 998.8199999999999 2085.9400000000005 998.41 2085.9400000000005C998.01 2085.9400000000005 997.68 2086.0600000000004 997.43 2086.3100000000004C997.18 2086.5800000000004 997.05 2086.9000000000005 997.05 2087.3C997.05 2087.7000000000003 997.18 2088.02 997.43 2088.28ZM967.76 2079.53L966.52 2079.78L966.52 2083.6400000000003L968.46 2083.28Z " fill="#e30613" fill-opacity="1" transform="matrix(1,0,0,1,-964,-2058)"></path></svg>